<?xml version="1.0" encoding="UTF-8" standalone="no"?>
<!DOCTYPE svg PUBLIC "-//W3C//DTD SVG 1.1//EN" "http://www.w3.org/Graphics/SVG/1.1/DTD/svg11.dtd">
<!-- Created with Vectornator (http://vectornator.io/) -->
<svg height="100%" stroke-miterlimit="10" style="fill-rule:nonzero;clip-rule:evenodd;stroke-linecap:round;stroke-linejoin:round;" version="1.1" viewBox="0 0 240 240" width="100%" xml:space="preserve" xmlns="http://www.w3.org/2000/svg" xmlns:xlink="http://www.w3.org/1999/xlink">
<defs>
<radialGradient cx="120" cy="120" gradientTransform="matrix(1 0 0 1 0 0)" gradientUnits="userSpaceOnUse" id="RadialGradient" r="120">
<stop offset="0" stop-color="#000000"/>
<stop offset="0.750122" stop-color="#2d2d2d"/>
</radialGradient>
</defs>
<clipPath id="ArtboardFrame">
<rect height="240" width="240" x="0" y="0"/>
</clipPath>
<g clip-path="url(#ArtboardFrame)" id="Layer-3">
<path d="M-4.65575e-15 20.9883C-1.81664e-15 9.39679 9.39679 3.07233e-14 20.9883 3.35624e-14L219.012 8.20641e-14C230.603 8.49032e-14 240 9.39679 240 20.9883L240 219.012C240 230.603 230.603 240 219.012 240L20.9883 240C9.39679 240-5.59966e-14 230.603-5.31575e-14 219.012L-4.65575e-15 20.9883Z" fill="url(#RadialGradient)" fill-rule="nonzero" opacity="1" stroke="none"/>
</g>
<g id="Layer-4">
<path d="M10.8949 123.364C10.9569 125.177 11.2322 126.981 11.716 128.777C15.4572 142.662 31.8922 155.536 56.0556 163.932C79.4121 172.047 109.588 175.835 138.131 174.393C165.723 172.999 191.299 166.754 207.924 157.523C223.997 148.598 231.434 137.039 228.486 126.098C225.636 115.52 213.153 105.688 194.737 99.2899C176.93 93.1028 153.913 90.2301 132.143 91.3299C111.089 92.3935 91.5303 97.1723 78.8392 104.219C66.5644 111.035 60.893 119.863 63.1453 128.222C65.324 136.308 74.8999 143.786 88.9835 148.679C102.609 153.413 120.221 155.633 136.887 154.791C153.013 153.977 167.938 150.337 177.664 144.936C187.076 139.71 191.435 132.921 189.707 126.507C188.034 120.3 180.684 114.558 169.865 110.799C159.393 107.16 145.894 105.461 133.075 106.108C120.664 106.735 109.185 109.549 101.694 113.708C94.4395 117.737 91.0729 122.933 92.4057 127.88C93.6968 132.672 99.3598 137.116 107.717 140.02L112.577 137.309C105.872 134.979 101.308 131.376 100.264 127.501C99.1787 123.472 101.935 119.183 107.887 115.878C114.075 112.442 123.641 110.08 133.964 109.559C144.693 109.017 156.184 110.445 165.005 113.51C174.172 116.695 180.423 121.624 181.848 126.914C183.329 132.41 179.58 138.264 171.471 142.767C163.048 147.444 149.972 150.632 135.935 151.341C121.358 152.077 105.881 150.128 93.9075 145.968C81.476 141.649 72.9356 134.984 71.004 127.815C68.9988 120.373 74.1239 112.454 85.0963 106.361C96.4848 100.037 114.066 95.7383 133.031 94.7803C152.712 93.786 173.657 96.416 189.813 102.029C206.577 107.854 218.024 116.844 220.628 126.505C223.328 136.528 216.438 147.151 201.667 155.353C186.344 163.861 162.682 169.654 137.179 170.943C110.725 172.279 82.6203 168.761 60.9157 161.22C38.4044 153.399 23.0688 141.338 19.5747 128.37C15.9511 114.922 25.1311 100.664 44.941 89.6639C65.4834 78.2572 97.2371 70.5115 131.415 68.7849L130.463 65.3063C94.1959 67.1385 60.5928 75.3641 38.7478 87.4941C20.2746 97.7518 10.4607 110.673 10.8949 123.364Z" fill="#000000" fill-rule="nonzero" opacity="1" stroke="#adadad" stroke-linecap="round" stroke-linejoin="round" stroke-width="1.77175"/>
<path d="M120 14.6294L128.941 111.059L225.371 120L128.941 128.941L120 225.371L111.059 128.941L14.6294 120L111.059 111.059L120 14.6294Z" fill="#ffffff" fill-rule="nonzero" opacity="1" stroke="#ffffff" stroke-linecap="butt" stroke-linejoin="round" stroke-width="1.1"/>
<path d="M179.689 60.311L131.855 119.954L179.689 179.597L120.046 131.763L60.4032 179.597L108.237 119.954L60.4032 60.311L120.046 108.145L179.689 60.311Z" fill="#ffffff" fill-rule="nonzero" opacity="1" stroke="#ffffff" stroke-linecap="butt" stroke-linejoin="round" stroke-width="1.1"/>
<path d="M47.6042 192.396L101.571 120L47.6042 47.6042L120 101.571L192.396 47.6042L138.429 120L192.396 192.396L120 138.429L47.6042 192.396Z" fill="#ffffff" fill-opacity="0.3" fill-rule="nonzero" opacity="1" stroke="none"/>
</g>
<g id="Layer-2"/>
</svg>
