<?xml version="1.0" encoding="UTF-8" standalone="no"?>
<!DOCTYPE svg PUBLIC "-//W3C//DTD SVG 1.1//EN" "http://www.w3.org/Graphics/SVG/1.1/DTD/svg11.dtd">
<!-- Created with Vectornator (http://vectornator.io/) -->
<svg height="100%" stroke-miterlimit="10" style="fill-rule:nonzero;clip-rule:evenodd;stroke-linecap:round;stroke-linejoin:round;" version="1.1" viewBox="0 0 240 240" width="100%" xml:space="preserve" xmlns="http://www.w3.org/2000/svg" xmlns:xlink="http://www.w3.org/1999/xlink">
<defs>
<radialGradient cx="120" cy="120" gradientTransform="matrix(1 0 0 1 0 0)" gradientUnits="userSpaceOnUse" id="RadialGradient" r="120">
<stop offset="0" stop-color="#000000"/>
<stop offset="0.750122" stop-color="#2d2d2d"/>
</radialGradient>
</defs>
<clipPath id="ArtboardFrame">
<rect height="240" width="240" x="0" y="0"/>
</clipPath>
<g clip-path="url(#ArtboardFrame)" id="Layer-3">
<path d="M-4.65575e-15 20.9883C-1.81664e-15 9.39679 9.39679 3.07233e-14 20.9883 3.35624e-14L219.012 8.20641e-14C230.603 8.49032e-14 240 9.39679 240 20.9883L240 219.012C240 230.603 230.603 240 219.012 240L20.9883 240C9.39679 240-5.59966e-14 230.603-5.31575e-14 219.012L-4.65575e-15 20.9883Z" fill="url(#RadialGradient)" fill-rule="nonzero" opacity="1" stroke="none"/>
</g>
<g id="Layer-4">
<path d="M10.973 125.47C11.0685 127.231 11.3768 128.979 11.8933 130.714C15.887 144.135 32.5395 156.332 56.8276 164.032C80.3046 171.475 110.512 174.584 138.992 172.642C166.523 170.765 191.95 164.212 208.383 154.927C224.27 145.951 231.484 134.579 228.337 124.004C225.294 113.78 212.645 104.463 194.134 98.5954C176.235 92.9211 153.195 90.5659 131.472 92.047C110.465 93.4793 91.0201 98.4932 78.4758 105.581C66.343 112.436 60.8423 121.121 63.2466 129.2C65.5723 137.016 75.2745 144.101 89.4309 148.588C103.126 152.93 120.758 154.753 137.387 153.619C153.477 152.522 168.315 148.703 177.929 143.271C187.232 138.015 191.459 131.335 189.615 125.137C187.829 119.137 180.382 113.697 169.508 110.249C158.981 106.912 145.468 105.517 132.677 106.389C120.293 107.233 108.881 110.184 101.477 114.368C94.3066 118.419 91.0405 123.533 92.4633 128.314C93.8415 132.945 99.5796 137.156 107.98 139.819L112.784 137.093C106.044 134.956 101.419 131.542 100.305 127.797C99.146 123.902 101.819 119.683 107.703 116.359C113.819 112.903 123.329 110.427 133.629 109.724C144.334 108.995 155.837 110.165 164.704 112.976C173.918 115.897 180.252 120.568 181.773 125.681C183.354 130.993 179.719 136.751 171.703 141.28C163.377 145.985 150.378 149.33 136.372 150.285C121.827 151.276 106.333 149.676 94.2983 145.861C81.8026 141.899 73.1496 135.585 71.0877 128.656C68.9473 121.463 73.9191 113.671 84.7646 107.544C96.0214 101.183 113.501 96.6729 132.424 95.3827C152.061 94.0437 173.028 96.2023 189.267 101.35C206.118 106.692 217.717 115.211 220.496 124.549C223.379 134.236 216.694 144.688 202.094 152.938C186.948 161.495 163.424 167.572 137.977 169.307C111.582 171.107 83.4478 168.222 61.6312 161.306C39.0038 154.132 23.4643 142.704 19.7344 130.17C15.8663 117.172 24.7705 103.144 44.3512 92.0804C64.6561 80.6079 96.2257 72.4802 130.328 70.1549L129.313 66.793C93.1259 69.2604 59.7182 77.8894 38.1258 90.0894C19.8662 100.406 10.3043 113.148 10.973 125.47Z" fill="#000000" fill-rule="nonzero" opacity="1" stroke="#adadad" stroke-linecap="round" stroke-linejoin="round" stroke-width="1.8"/>
<path d="M120 29.2587L137.964 102.136L211.251 120L137.964 137.864L120 210.741L102.036 137.864L28.7494 120L102.036 102.136L120 29.2587Z" fill="#ffffff" fill-rule="nonzero" opacity="1" stroke="#ffffff" stroke-linecap="butt" stroke-linejoin="round" stroke-width="3"/>
<path d="M184.721 56.3545L146.135 120L184.721 183.645L121.076 145.059L57.4305 183.645L96.0167 120L57.4305 56.3545L121.076 94.9408L184.721 56.3545Z" fill="#ffffff" fill-opacity="0.4" fill-rule="nonzero" opacity="1" stroke="none"/>
</g>
<g id="Layer-2"/>
</svg>
